<?xml version="1.0"?>

<!DOCTYPE svg PUBLIC '-//W3C//DTD SVG 1.0//EN' 'http://www.w3.org/TR/2001/REC-SVG-20010904/DTD/svg10.dtd'>
<svg fill-opacity="1" xmlns:xlink="http://www.w3.org/1999/xlink" color-rendering="auto" color-interpolation="auto" text-rendering="auto" stroke="black" stroke-linecap="square" stroke-miterlimit="10" shape-rendering="auto" stroke-opacity="1" fill="black" stroke-dasharray="none" font-weight="normal" stroke-width="1" xmlns="http://www.w3.org/2000/svg" font-family="&apos;Dialog&apos;" font-style="normal" stroke-linejoin="miter" font-size="12" stroke-dashoffset="0" image-rendering="auto">
  <!--Unicode Character 'MOUNTAIN' (U+26F0)-->
  <defs id="genericDefs" />
  <g>
    <g>
      <path d="M280.8281 319.5 L57.2344 319.5 Q60.8906 307.4062 70.0312 284.2031 Q72.4219 279.2812 80.5781 268.5938 Q87.8906 258.75 90.1406 253.2656 Q90.5625 245.9531 91.5469 235.125 Q94.5 225.4219 100.2656 206.0156 Q101.25 202.2188 103.3594 194.625 Q106.4531 183.5156 112.7812 175.2188 Q119.9531 165.6562 122.9062 157.7812 Q123.4688 156.2344 128.3906 135.5625 Q130.5 126.8438 138.375 108.2812 Q145.9688 90.9844 147.7969 80.8594 L154.9688 72.4219 Q164.25 77.2031 180.8438 99.5625 Q195.3281 118.9688 201.7969 132.1875 Q205.7344 142.1719 214.4531 161.8594 Q220.3594 171.7031 231.6094 191.6719 Q245.8125 218.3906 251.2969 235.6875 Q253.5469 248.3438 260.0156 273.0938 Q262.4062 280.2656 270.8438 296.1562 Q278.4375 310.5 280.8281 319.5 ZM124.1719 147.5156 Q122.3438 153.5625 117.4219 164.9531 Q112.9219 170.5781 105.3281 182.8125 Q104.4844 184.5 98.2969 205.1719 Q94.9219 214.875 89.5781 234.5625 Q89.1562 236.9531 88.3125 252.1406 Q81.1406 262.125 68.3438 283.0781 Q65.1094 289.5469 61.3125 301.2188 Q57.0938 314.5781 54.9844 319.5 L7.1719 319.5 Q11.5312 309.6562 18.7031 289.2656 Q19.8281 280.5469 23.3438 263.5312 Q28.2656 246.375 47.3906 221.7656 Q48.6562 213.8906 53.1562 201.2344 Q58.3594 186.4688 59.7656 180.8438 Q60.3281 177.8906 62.0156 171.9844 Q63.1406 169.0312 67.6406 161.7188 Q75.2344 149.4844 77.2031 145.6875 Q82.2656 136.5469 84.2344 128.5312 L91.8281 121.7812 Q104.4844 126.5625 124.1719 147.5156 Z" stroke="none" />
    </g>
  </g>
</svg>
